<?xml version="1.0" encoding="utf-8"?>
<!-- Generator: Adobe Illustrator 19.1.0, SVG Export Plug-In . SVG Version: 6.00 Build 0)  -->
<svg version="1.1" id="Layer_1" xmlns="http://www.w3.org/2000/svg" xmlns:xlink="http://www.w3.org/1999/xlink" x="0px" y="0px"
	 viewBox="-49 133.8 512 526.2" style="enable-background:new -49 133.8 512 526.2;" xml:space="preserve">
<style type="text/css">
	.st0{fill:#FFFFFF;}
</style>
<path class="st0" d="M154.3,650c-1.7,0-2.9-1.3-3.2-2.6l-10.6-75.2l-5.2-2.2c-14.8-6.2-29-14.4-42.2-24.6l-4.5-3.5l-70.8,28.6
	c-0.3,0.1-0.6,0.2-1,0.2c-0.8,0-2-0.4-2.7-1.6l-52.6-91.1c-0.8-1.4-0.5-3.1,0.7-4l59.9-47l-0.7-5.6c-1.2-9.8-1.8-17.3-1.8-24.4
	c0-7.1,0.5-14.7,1.8-24.4l0.7-5.6l-59.9-47c-1.2-1-1.5-2.7-0.8-4l52.6-91.2c0.8-1.4,2.3-1.5,2.7-1.5c0.4,0,0.7,0.1,1.1,0.2
	l70.7,28.5l4.5-3.5c12.9-10,27.1-18.3,42.2-24.6l5.2-2.2l10.6-75.2c0.3-1.3,1.4-2.6,3.2-2.6h105.2c1.7,0,3,1.4,3.3,2.8l10.6,75
	l5.3,2.2c14.8,6.2,29,14.4,42.2,24.6l4.5,3.5l70.8-28.6c0.3-0.1,0.6-0.2,1-0.2c0.8,0,2,0.4,2.7,1.6l52.6,91.1c0.8,1.4,0.5,3.1-0.7,4
	l-60.1,47l0.7,5.6c1.2,9.8,1.8,17.3,1.8,24.4c0,7.1-0.5,14.6-1.8,24.4l-0.7,5.6l59.9,47c1.2,1,1.5,2.7,0.8,4l-52.6,91.2
	c-0.8,1.4-2.3,1.5-2.7,1.5c-0.4,0-0.7-0.1-1.1-0.2l-70.7-28.5l-4.5,3.5c-12.9,10-27.1,18.3-42.2,24.6l-5.2,2.2l-10.6,75.2
	c-0.3,1.3-1.4,2.6-3.2,2.6H154.3z M206.9,294.8c-56.3,0-102.1,45.8-102.1,102.1S150.6,499,206.9,499c56.3,0,102.1-45.8,102.1-102.1
	S263.2,294.8,206.9,294.8z"/>
</svg>
